<?xml version="1.0" encoding="UTF-8" standalone="no"?>
<svg
   xmlns:dc="http://purl.org/dc/elements/1.1/"
   xmlns:cc="http://creativecommons.org/ns#"
   xmlns:rdf="http://www.w3.org/1999/02/22-rdf-syntax-ns#"
   xmlns:svg="http://www.w3.org/2000/svg"
   xmlns="http://www.w3.org/2000/svg"
   xmlns:sodipodi="http://sodipodi.sourceforge.net/DTD/sodipodi-0.dtd"
   xmlns:inkscape="http://www.inkscape.org/namespaces/inkscape"
   width="999.99994"
   height="291.07138"
   enable-background="new 0 0 228.9 20"
   version="1.1"
   viewBox="0 0 995.21733 161.70633"
   xml:space="preserve"
   id="svg45"
   sodipodi:docname="A.svg"
   inkscape:version="0.92.4 (5da689c313, 2019-01-14)"><metadata
     id="metadata51"><rdf:RDF><cc:Work
         rdf:about=""><dc:format>image/svg+xml</dc:format><dc:type
           rdf:resource="http://purl.org/dc/dcmitype/StillImage" /><dc:title></dc:title></cc:Work></rdf:RDF></metadata><defs
     id="defs49"><clipPath
       clipPathUnits="userSpaceOnUse"
       id="clipPath255"><path
         d="M 425.197,24.946 H 559.275 V 161.574 H 425.197 Z"
         id="path253"
         inkscape:connector-curvature="0" /></clipPath><clipPath
       clipPathUnits="userSpaceOnUse"
       id="clipPath2816"><path
         d="M 0,0 H 396 V 612 H 0 Z"
         id="path2814"
         inkscape:connector-curvature="0" /></clipPath><clipPath
       clipPathUnits="userSpaceOnUse"
       id="clipPath2794"><path
         d="M 0,0 H 396 V 612 H 0 Z"
         id="path2792"
         inkscape:connector-curvature="0" /></clipPath><clipPath
       clipPathUnits="userSpaceOnUse"
       id="clipPath2778"><path
         d="M 0,0 H 396 V 612 H 0 Z"
         id="path2776"
         inkscape:connector-curvature="0" /></clipPath><clipPath
       clipPathUnits="userSpaceOnUse"
       id="clipPath2748"><path
         d="M 0,0 H 396 V 612 H 0 Z"
         id="path2746"
         inkscape:connector-curvature="0" /></clipPath><clipPath
       clipPathUnits="userSpaceOnUse"
       id="clipPath2710"><path
         d="M 0,0 H 396 V 612 H 0 Z"
         id="path2708"
         inkscape:connector-curvature="0" /></clipPath><clipPath
       clipPathUnits="userSpaceOnUse"
       id="clipPath2664"><path
         d="M 0,0 H 396 V 612 H 0 Z"
         id="path2662"
         inkscape:connector-curvature="0" /></clipPath></defs><sodipodi:namedview
     pagecolor="#ffffff"
     bordercolor="#111111"
     borderopacity="1"
     objecttolerance="10"
     gridtolerance="10"
     guidetolerance="10"
     inkscape:pageopacity="0"
     inkscape:pageshadow="2"
     inkscape:window-width="1920"
     inkscape:window-height="1017"
     id="namedview47"
     showgrid="false"
     fit-margin-top="0"
     fit-margin-left="0"
     fit-margin-right="0"
     fit-margin-bottom="0"
     inkscape:zoom="0.71956522"
     inkscape:cx="581.95501"
     inkscape:cy="53.231746"
     inkscape:window-x="1912"
     inkscape:window-y="-8"
     inkscape:window-maximized="1"
     inkscape:current-layer="svg45" /><g
     id="g97"
     transform="matrix(10.058288,0,0,-10.058288,411.70582,8.7260372)"
     style="fill:#4f5252;fill-opacity:1"><path
       d="m 0,0 c 1.634,-0.404 2.329,-1.264 2.331,-2.483 0.003,-1.655 -1.405,-2.753 -3.429,-2.756 -1.952,-0.004 -3.56,1.059 -3.608,3.151 0,0.186 0.134,0.324 0.297,0.324 l 0.432,0.001 c 0.197,10e-4 0.327,-0.151 0.328,-0.323 0.043,-1.419 1.044,-2.169 2.558,-2.166 1.427,0.002 2.39,0.727 2.388,1.767 -10e-4,0.745 -0.432,1.299 -1.596,1.558 -0.551,0.129 -1.07,0.257 -1.685,0.438 C -3.027,-0.176 -4.2,0.5 -4.202,1.852 -4.205,3.53 -2.908,4.421 -1.158,4.424 0.607,4.428 1.897,3.535 2.022,1.92 2.032,1.734 1.9,1.626 1.706,1.626 L 1.332,1.625 C 1.155,1.625 1.017,1.732 0.989,1.918 0.858,3.007 -0.032,3.511 -1.182,3.509 -2.394,3.507 -3.224,2.822 -3.185,1.865 -3.148,1.044 -2.441,0.66 -1.612,0.438 -1.107,0.292 -0.573,0.152 0,0"
       style="fill:#4f5252;fill-opacity:1;fill-rule:nonzero;stroke:none"
       id="path99"
       inkscape:connector-curvature="0" /></g><g
     id="g101"
     transform="matrix(10.058288,0,0,-10.058288,445.99449,-0.35658377)"
     style="fill:#4f5252;fill-opacity:1"><path
       d="M 0,0 C -0.196,0 -0.257,0.136 -0.257,0.301 V 0.64 c -0.001,0.183 0.119,0.318 0.329,0.318 L 0.639,0.959 0.637,2.444 c 0,0.197 0.124,0.328 0.308,0.328 L 1.36,2.773 c 0.2,0 0.312,-0.13 0.312,-0.327 L 1.675,0.961 3.068,0.963 C 3.259,0.964 3.387,0.83 3.387,0.646 L 3.388,0.308 C 3.388,0.143 3.261,0.006 3.07,0.005 L 1.677,0.003 1.684,-4.378 c 0.001,-0.392 0.265,-0.641 0.644,-0.64 l 0.737,10e-4 c 0.182,0 0.315,-0.125 0.315,-0.296 l 10e-4,-0.363 c 0,-0.181 -0.132,-0.3 -0.314,-0.301 L 2.3,-5.978 C 1.289,-5.98 0.651,-5.374 0.649,-4.411 L 0.641,0.001 0,0"
       style="fill:#4f5252;fill-opacity:1;fill-rule:nonzero;stroke:none"
       id="path103"
       inkscape:connector-curvature="0" /></g><g
     id="g105"
     transform="matrix(10.058288,0,0,-10.058288,539.19463,17.0543)"
     style="fill:#4f5252;fill-opacity:1"><path
       d="M 0,0 C 0.031,1.136 -0.736,1.965 -1.904,1.963 -3.138,1.961 -3.863,0.97 -3.974,-0.007 Z m 0.314,-2.099 0.407,0.001 c 0.208,0 0.31,-0.173 0.235,-0.371 -0.386,-1.135 -1.489,-1.919 -2.799,-1.921 -1.938,-0.004 -3.174,1.493 -3.178,3.657 -0.003,1.937 1.169,3.572 3.138,3.575 1.731,0.003 2.871,-1.35 2.874,-2.914 l 0.001,-0.483 c 0,-0.213 -0.138,-0.33 -0.327,-0.33 l -4.678,-0.009 c -0.012,-1.431 0.745,-2.554 2.18,-2.551 0.812,10e-4 1.437,0.385 1.756,1.088 0.081,0.189 0.222,0.258 0.391,0.258"
       style="fill:#4f5252;fill-opacity:1;fill-rule:nonzero;stroke:none"
       id="path107"
       inkscape:connector-curvature="0" /></g><g
     id="g109"
     transform="matrix(10.058288,0,0,-10.058288,679.77933,16.802342)"
     style="fill:#4f5252;fill-opacity:1"><path
       d="M 0,0 C 0.02,1.135 -0.75,1.965 -1.916,1.963 -3.149,1.961 -3.868,0.97 -3.981,-0.007 Z M 0.307,-2.099 H 0.71 c 0.207,0.001 0.309,-0.172 0.237,-0.37 -0.385,-1.136 -1.491,-1.92 -2.8,-1.922 -1.941,-0.003 -3.169,1.493 -3.173,3.657 -0.003,1.937 1.165,3.572 3.132,3.576 1.727,0.003 2.879,-1.35 2.882,-2.914 l 0.001,-0.484 c 0,-0.212 -0.144,-0.329 -0.333,-0.33 l -4.68,-0.008 c -0.012,-1.432 0.745,-2.554 2.184,-2.552 0.808,0.002 1.433,0.386 1.756,1.088 0.088,0.189 0.224,0.258 0.391,0.259"
       style="fill:#4f5252;fill-opacity:1;fill-rule:nonzero;stroke:none"
       id="path111"
       inkscape:connector-curvature="0" /></g><g
     id="g113"
     transform="matrix(10.058288,0,0,-10.058288,719.00673,-2.5593988)"
     style="fill:#4f5252;fill-opacity:1"><path
       d="M 0,0 C 0.415,0.469 1.174,0.929 2.09,0.931 3.684,0.933 4.759,-0.124 4.762,-1.78 L 4.77,-5.828 c 0,-0.171 -0.141,-0.317 -0.321,-0.317 l -0.39,-0.001 c -0.169,0 -0.324,0.145 -0.325,0.316 L 3.727,-1.782 C 3.725,-0.66 3.087,0.006 1.953,0.004 1.035,0.002 0.24,-0.751 0.003,-1.415 L 0.01,-5.836 c 10e-4,-0.172 -0.154,-0.317 -0.336,-0.318 h -0.39 c -0.187,-0.001 -0.303,0.144 -0.303,0.316 L -1.03,0.467 c 0,0.164 0.114,0.318 0.301,0.318 l 0.382,0.001 c 0.176,0 0.303,-0.133 0.313,-0.306 L 0,0"
       style="fill:#4f5252;fill-opacity:1;fill-rule:nonzero;stroke:none"
       id="path115"
       inkscape:connector-curvature="0" /></g><g
     id="g117"
     transform="matrix(10.058288,0,0,-10.058288,813.11203,51.35252)"
     style="fill:#4f5252;fill-opacity:1"><path
       d="M 0,0 C 1.161,-0.009 1.774,0.504 1.772,1.188 1.771,1.725 1.366,2.009 0.866,2.091 0.247,2.209 -0.338,2.323 -0.918,2.496 -1.69,2.718 -2.458,3.283 -2.46,4.304 -2.462,5.485 -1.437,6.282 0.018,6.285 1.387,6.287 2.338,5.485 2.536,4.466 2.561,4.299 2.468,4.158 2.281,4.157 H 1.852 C 1.684,4.156 1.513,4.267 1.472,4.438 1.361,4.868 0.9,5.416 0.015,5.414 -0.912,5.413 -1.488,4.962 -1.487,4.322 -1.486,3.848 -1.105,3.528 -0.631,3.414 -0.114,3.287 0.525,3.155 1.071,3.042 1.941,2.88 2.771,2.299 2.773,1.19 2.775,0.033 1.762,-0.903 -0.011,-0.907 -1.584,-0.909 -2.673,0.011 -2.76,1.249 c -0.018,0.174 0.096,0.297 0.261,0.298 h 0.45 C -1.859,1.548 -1.73,1.417 -1.715,1.231 -1.658,0.582 -1.018,0.014 0,0"
       style="fill:#4f5252;fill-opacity:1;fill-rule:nonzero;stroke:none"
       id="path119"
       inkscape:connector-curvature="0" /></g><g
     id="g121"
     transform="matrix(10.058288,0,0,-10.058288,908.39413,24.315834)"
     style="fill:#4f5252;fill-opacity:1"><path
       d="M 0,0 C -0.003,1.554 -0.766,2.669 -2.144,2.667 -3.511,2.665 -4.289,1.563 -4.286,-0.007 -4.284,-1.506 -3.502,-2.62 -2.135,-2.618 -0.757,-2.615 0.003,-1.498 0,0 m 1.013,0.002 c 0.004,-2.057 -1.271,-3.603 -3.146,-3.606 -1.863,-0.004 -3.168,1.538 -3.172,3.595 -0.003,2.092 1.296,3.634 3.159,3.64 C -0.27,3.634 1.01,2.094 1.013,0.002"
       style="fill:#4f5252;fill-opacity:1;fill-rule:nonzero;stroke:none"
       id="path123"
       inkscape:connector-curvature="0" /></g><g
     id="g125"
     transform="matrix(10.058288,0,0,-10.058288,947.19903,-2.9621978)"
     style="fill:#4f5252;fill-opacity:1"><path
       d="M 0,0 C 0.418,0.469 1.178,0.932 2.093,0.933 3.686,0.936 4.764,-0.124 4.767,-1.78 L 4.774,-5.828 C 4.775,-6 4.632,-6.145 4.448,-6.145 L 4.061,-6.146 c -0.171,0 -0.322,0.145 -0.322,0.316 L 3.732,-1.782 C 3.73,-0.66 3.087,0.006 1.953,0.004 1.032,0.002 0.243,-0.748 0.002,-1.415 L 0.01,-5.836 c 10e-4,-0.172 -0.154,-0.317 -0.329,-0.318 h -0.395 c -0.178,-0.001 -0.305,0.144 -0.305,0.316 L -1.03,0.467 c -10e-4,0.164 0.125,0.318 0.304,0.318 l 0.381,0.001 c 0.177,0 0.305,-0.133 0.315,-0.306 L 0,0"
       style="fill:#4f5252;fill-opacity:1;fill-rule:nonzero;stroke:none"
       id="path127"
       inkscape:connector-curvature="0" /></g><g
     id="g129"
     transform="matrix(10.058288,0,0,-10.058288,588.55063,54.490703)"
     style="fill:#4f5252;fill-opacity:1"><path
       d="M 0,0 -2.13,6.201 C -2.19,6.335 -2.326,6.432 -2.51,6.432 L -2.998,6.431 C -3.221,6.43 -3.29,6.245 -3.22,6.074 l 2.223,-6.33 c 0.052,-0.13 0.181,-0.25 0.357,-0.249 h 0.167 L 0,0"
       style="fill:#4f5252;fill-opacity:1;fill-rule:nonzero;stroke:none"
       id="path131"
       inkscape:connector-curvature="0" /></g><g
     id="g133"
     transform="matrix(10.058288,0,0,-10.058288,589.14413,54.490703)"
     style="fill:#4f5252;fill-opacity:1"><path
       d="M 0,0 2.107,6.208 C 2.17,6.343 2.299,6.44 2.488,6.44 l 0.49,10e-4 C 3.196,6.442 3.27,6.257 3.196,6.086 L 1.001,-0.252 C 0.943,-0.383 0.822,-0.503 0.638,-0.503 H 0.478 L 0,0"
       style="fill:#4f5252;fill-opacity:1;fill-rule:nonzero;stroke:none"
       id="path135"
       inkscape:connector-curvature="0" /></g><g
     id="g137"
     transform="matrix(10.058288,0,0,-10.058288,593.08693,49.109759)"
     style="fill:#4f5252;fill-opacity:1"><path
       d="m 0,0 h -1.03 c -0.169,0 -0.317,-0.122 -0.317,-0.302 v -0.383 c 0,-0.193 0.148,-0.338 0.317,-0.338 H 0.091 L 0,0"
       style="fill:#4f5252;fill-opacity:1;fill-rule:nonzero;stroke:none"
       id="path139"
       inkscape:connector-curvature="0" /></g><g
     id="g141"
     transform="matrix(10.058288,0,0,-10.058288,411.93716,138.41756)"
     style="fill:#4f5252;fill-opacity:1"><path
       d="m 0,0 c 1.634,-0.418 2.329,-1.272 2.331,-2.506 0.003,-1.652 -1.405,-2.738 -3.429,-2.741 -1.952,-0.004 -3.56,1.051 -3.608,3.153 0,0.186 0.134,0.306 0.297,0.306 l 0.432,0.001 c 0.197,0 0.327,-0.134 0.328,-0.305 0.043,-1.432 1.044,-2.185 2.558,-2.182 1.427,0.002 2.39,0.734 2.388,1.766 -10e-4,0.743 -0.432,1.302 -1.596,1.571 -0.551,0.121 -1.07,0.255 -1.685,0.433 -1.043,0.316 -2.216,0.993 -2.218,2.346 -0.003,1.677 1.294,2.573 3.044,2.576 C 0.607,4.421 1.897,3.515 2.022,1.899 2.032,1.726 1.9,1.607 1.706,1.606 H 1.332 C 1.155,1.606 1.017,1.724 0.989,1.897 0.858,2.989 -0.032,3.492 -1.182,3.49 -2.394,3.488 -3.224,2.813 -3.185,1.863 -3.148,1.021 -2.441,0.645 -1.612,0.405 -1.107,0.265 -0.573,0.137 0,0"
       style="fill:#4f5252;fill-opacity:1;fill-rule:nonzero;stroke:none"
       id="path143"
       inkscape:connector-curvature="0" /></g><g
     id="g145"
     transform="matrix(10.058288,0,0,-10.058288,544.56573,181.8792)"
     style="fill:#4f5252;fill-opacity:1"><path
       d="M 0,0 C 1.16,-0.012 1.772,0.506 1.77,1.195 1.77,1.719 1.363,2.016 0.865,2.102 0.249,2.206 -0.336,2.324 -0.927,2.495 -1.699,2.717 -2.461,3.304 -2.463,4.314 -2.465,5.5 -1.432,6.285 0.019,6.288 1.39,6.29 2.342,5.487 2.533,4.468 2.562,4.307 2.466,4.165 2.279,4.164 H 1.85 C 1.684,4.163 1.517,4.274 1.473,4.445 1.358,4.874 0.897,5.414 0.009,5.413 -0.916,5.411 -1.488,4.97 -1.487,4.325 -1.486,3.854 -1.1,3.533 -0.631,3.425 -0.114,3.283 0.53,3.155 1.07,3.048 1.939,2.887 2.776,2.315 2.778,1.197 2.78,0.03 1.764,-0.899 -0.012,-0.902 c -1.576,-0.003 -2.667,0.91 -2.751,2.147 -0.015,0.191 0.099,0.316 0.266,0.317 h 0.443 C -1.86,1.563 -1.731,1.432 -1.716,1.239 -1.662,0.59 -1.021,0.011 0,0"
       style="fill:#4f5252;fill-opacity:1;fill-rule:nonzero;stroke:none"
       id="path147"
       inkscape:connector-curvature="0" /></g><g
     id="g149"
     transform="matrix(10.058288,0,0,-10.058288,584.60783,129.45569)"
     style="fill:#4f5252;fill-opacity:1"><path
       d="m 0,0 c -0.19,0 -0.331,0.144 -0.332,0.308 v 0.328 c -0.001,0.182 0.125,0.339 0.33,0.339 L 1.049,0.977 1.045,3.185 C 1.044,3.38 1.166,3.509 1.351,3.51 l 0.421,0.001 c 0.192,0 0.301,-0.129 0.301,-0.324 L 2.077,0.979 3.365,0.981 c 0.198,0 0.321,-0.156 0.321,-0.338 L 3.687,0.315 C 3.687,0.151 3.564,0.007 3.367,0.006 L 2.079,0.004 2.087,-4.382 c 0,-0.385 0.269,-0.637 0.644,-0.636 l 0.629,10e-4 c 0.181,0.001 0.321,-0.126 0.321,-0.291 L 3.682,-5.67 c 0,-0.185 -0.139,-0.305 -0.32,-0.305 L 2.707,-5.976 C 1.703,-5.978 1.06,-5.359 1.058,-4.401 L 1.05,0.002 0,0"
       style="fill:#4f5252;fill-opacity:1;fill-rule:nonzero;stroke:none"
       id="path151"
       inkscape:connector-curvature="0" /></g><g
     id="g153"
     transform="matrix(10.058288,0,0,-10.058288,680.01063,146.78584)"
     style="fill:#4f5252;fill-opacity:1"><path
       d="M 0,0 C 0.02,1.121 -0.75,1.962 -1.916,1.96 -3.149,1.958 -3.875,0.971 -3.981,-0.007 Z m 0.307,-2.106 0.403,10e-4 c 0.207,0 0.309,-0.167 0.237,-0.372 -0.386,-1.138 -1.491,-1.902 -2.8,-1.904 -1.941,-0.003 -3.169,1.49 -3.173,3.643 -0.003,1.932 1.165,3.574 3.132,3.578 1.727,0.003 2.879,-1.352 2.882,-2.913 L 0.989,-0.55 c 0,-0.22 -0.144,-0.351 -0.333,-0.351 l -4.68,-0.008 c -0.012,-1.421 0.745,-2.55 2.184,-2.547 0.808,10e-4 1.433,0.398 1.756,1.102 0.088,0.182 0.223,0.248 0.391,0.248"
       style="fill:#4f5252;fill-opacity:1;fill-rule:nonzero;stroke:none"
       id="path155"
       inkscape:connector-curvature="0" /></g><g
     id="g157"
     transform="matrix(10.058288,0,0,-10.058288,719.40893,126.11603)"
     style="fill:#4f5252;fill-opacity:1"><path
       d="M 0,0 C 0.441,0.543 1.127,0.798 1.682,0.799 2.45,0.801 3.16,0.379 3.498,-0.136 3.962,0.427 4.68,0.804 5.361,0.806 6.714,0.808 7.673,-0.111 7.675,-1.448 l 0.008,-4.496 c 0,-0.191 -0.139,-0.332 -0.322,-0.332 L 6.952,-6.277 c -0.151,0 -0.303,0.16 -0.304,0.332 L 6.64,-1.468 C 6.639,-0.654 6.141,-0.132 5.287,-0.133 4.674,-0.134 3.946,-0.647 3.837,-1.432 L 3.845,-5.95 c 0,-0.172 -0.142,-0.333 -0.323,-0.333 H 3.172 C 2.988,-6.284 2.855,-6.124 2.854,-5.952 L 2.846,-1.475 C 2.845,-0.707 2.27,-0.139 1.472,-0.14 0.696,-0.141 0.105,-0.794 -0.015,-1.567 l 0.008,-4.39 c 0,-0.172 -0.14,-0.332 -0.32,-0.333 h -0.407 c -0.169,-0.001 -0.302,0.16 -0.302,0.331 l -0.011,6.286 c -0.001,0.175 0.15,0.338 0.313,0.338 l 0.369,0.001 c 0.177,0 0.294,-0.135 0.314,-0.303 L 0,0"
       style="fill:#4f5252;fill-opacity:1;fill-rule:nonzero;stroke:none"
       id="path159"
       inkscape:connector-curvature="0" /></g><g
     id="g161"
     transform="matrix(10.058288,0,0,-10.058288,842.05983,181.35641)"
     style="fill:#4f5252;fill-opacity:1"><path
       d="M 0,0 C 1.16,-0.012 1.779,0.506 1.777,1.195 1.776,1.719 1.371,2.016 0.866,2.102 0.255,2.206 -0.33,2.324 -0.921,2.495 -1.688,2.717 -2.456,3.304 -2.458,4.314 -2.46,5.5 -1.426,6.285 0.022,6.288 1.389,6.29 2.344,5.487 2.537,4.468 2.565,4.307 2.468,4.165 2.289,4.164 H 1.853 C 1.685,4.163 1.518,4.275 1.481,4.445 1.366,4.874 0.902,5.414 0.01,5.413 -0.91,5.411 -1.481,4.97 -1.48,4.325 -1.479,3.854 -1.103,3.533 -0.626,3.425 -0.112,3.283 0.527,3.155 1.078,3.048 1.943,2.887 2.777,2.315 2.779,1.197 2.781,0.03 1.768,-0.899 -0.006,-0.902 c -1.577,-0.003 -2.664,0.91 -2.753,2.147 -0.016,0.191 0.1,0.316 0.259,0.317 h 0.452 C -1.854,1.563 -1.725,1.432 -1.712,1.239 -1.656,0.59 -1.015,0.011 0,0"
       style="fill:#4f5252;fill-opacity:1;fill-rule:nonzero;stroke:none"
       id="path163"
       inkscape:connector-curvature="0" /></g><g
     id="g165"
     transform="matrix(10.058288,0,0,-10.058288,475.24403,184.76618)"
     style="fill:#4f5252;fill-opacity:1"><path
       d="M 0,0 -2.134,6.205 C -2.193,6.344 -2.323,6.451 -2.511,6.45 L -2.999,6.449 c -0.223,0 -0.296,-0.206 -0.222,-0.376 l 2.223,-6.308 c 0.053,-0.148 0.18,-0.265 0.359,-0.264 h 0.164 L 0,0"
       style="fill:#4f5252;fill-opacity:1;fill-rule:nonzero;stroke:none"
       id="path167"
       inkscape:connector-curvature="0" /></g><g
     id="g169"
     transform="matrix(10.058288,0,0,-10.058288,479.57913,179.03292)"
     style="fill:#4f5252;fill-opacity:1"><path
       d="M 0,0 H -1.034 C -1.201,0 -1.35,-0.136 -1.35,-0.307 v -0.391 c 0,-0.177 0.149,-0.334 0.316,-0.334 H 0.09 L 0,0"
       style="fill:#4f5252;fill-opacity:1;fill-rule:nonzero;stroke:none"
       id="path171"
       inkscape:connector-curvature="0" /></g><g
     id="g173"
     transform="matrix(10.058288,0,0,-10.058288,505.70053,119.7891)"
     style="fill:#4f5252;fill-opacity:1"><path
       d="m 0,0 -0.481,-0.001 c -0.184,0 -0.326,-0.107 -0.381,-0.247 l -2.795,-8.171 c -0.097,-0.23 -0.27,-0.342 -0.598,-0.342 l -1.034,-0.002 c -0.208,-10e-4 -0.334,-0.142 -0.333,-0.33 v -0.332 c 0,-0.164 0.145,-0.3 0.335,-0.299 l 1.144,0.002 c 0.783,10e-4 1.251,0.358 1.481,1.013 l 2.892,8.33 C 0.295,-0.206 0.229,0.001 0,0"
       style="fill:#4f5252;fill-opacity:1;fill-rule:nonzero;stroke:none"
       id="path175"
       inkscape:connector-curvature="0" /></g><g
     id="g177"
     transform="matrix(10.058288,0,0,-10.058288,217.95304,58.322907)"
     style="fill:#4f5252;fill-opacity:1"><path
       d="M 0,0 -2.209,1.263 -0.036,2.52 2.172,1.261 Z M 2.172,-2.219 -0.036,-3.501 -2.209,-2.247 0,-0.981 Z m 0,-3.528 L 0,-6.996 l -2.212,1.255 2.176,1.268 c 0.842,-0.488 1.662,-0.955 2.208,-1.274 m -5.434,0.384 h -0.021 l -11.877,-6.885 -5.231,2.989 2.171,1.262 2.854,-1.628 c 0.128,-0.074 0.292,-0.074 0.421,0 l 11.888,6.872 c 0.381,-0.216 1.235,-0.702 2.169,-1.232 z m -17.129,-0.417 2.209,1.283 2.168,-1.25 -2.206,-1.27 z m 0,3.519 2.171,1.262 2.206,-1.262 -2.173,-1.262 z m -0.001,3.477 2.205,1.285 2.173,-1.24 -2.21,-1.29 c -0.832,0.478 -1.636,0.939 -2.168,1.245 m 17.335,-0.45 2.206,-1.258 -2.401,-1.395 c -0.01,-0.003 -0.022,0 -0.031,-0.003 l -11.877,-6.879 -2.21,1.265 2.407,1.39 0.018,0.004 z m -0.195,0.867 c -0.01,0 -0.022,0 -0.031,-0.005 l -11.884,-6.882 -2.17,1.244 2.372,1.371 c 0,0 0.014,0 0.02,0.006 L -3.064,4.248 -0.888,3.005 Z M -14.968,0.88 c 0.008,0 0.017,0 0.023,0.011 L -3.064,7.768 2.172,4.774 -0.036,3.492 -2.852,5.106 C -2.988,5.179 -3.144,5.179 -3.283,5.101 l -11.884,-6.87 c -0.381,0.22 -1.255,0.711 -2.203,1.255 z M 3.448,1.263 c 0,0.153 -0.082,0.289 -0.219,0.365 L 0.81,3.008 3.231,4.415 c 0.135,0.07 0.217,0.215 0.217,0.367 0,0.147 -0.082,0.287 -0.219,0.362 l -6.081,3.478 c -0.136,0.076 -0.292,0.076 -0.431,0 l -11.884,-6.88 -2.175,1.248 11.413,6.611 c 0.204,0.127 0.269,0.378 0.154,0.583 -0.114,0.202 -0.377,0.273 -0.58,0.156 l -11.832,-6.87 -2.204,1.262 11.451,6.631 c 0.202,0.123 0.27,0.375 0.154,0.587 -0.117,0.197 -0.372,0.27 -0.579,0.156 L -21.454,5.095 c -0.131,-0.073 -0.215,-0.215 -0.215,-0.363 0,-0.155 0.084,-0.292 0.215,-0.368 l 2.417,-1.379 -2.417,-1.401 c -0.131,-0.073 -0.215,-0.224 -0.215,-0.368 0,-0.232 0.006,-0.255 2.598,-1.73 l -2.383,-1.382 c -0.131,-0.071 -0.215,-0.214 -0.215,-0.365 0,-0.158 0.084,-0.288 0.215,-0.372 l 2.42,-1.38 -2.42,-1.402 c -0.131,-0.081 -0.215,-0.221 -0.215,-0.377 0,-0.142 0.084,-0.285 0.215,-0.357 l 2.388,-1.359 -2.388,-1.386 c -0.131,-0.076 -0.215,-0.218 -0.215,-0.365 0,-0.149 0.084,-0.29 0.215,-0.366 l 6.088,-3.479 c 0.008,-0.011 0.025,-0.011 0.033,-0.011 0.045,-0.019 0.091,-0.034 0.134,-0.039 0.017,-0.003 0.03,-0.009 0.04,-0.009 0.006,0 0.016,0.006 0.024,0.006 0.062,0 0.123,0.008 0.178,0.053 h 0.012 l 11.888,6.879 2.206,-1.266 -11.442,-6.64 c -0.202,-0.117 -0.272,-0.369 -0.158,-0.57 0.081,-0.143 0.225,-0.211 0.372,-0.211 0.073,0 0.141,0.018 0.212,0.053 L 0,-7.979 2.172,-9.216 -9.284,-15.848 c -0.2,-0.12 -0.268,-0.374 -0.155,-0.584 0.082,-0.131 0.221,-0.208 0.37,-0.208 0.069,0 0.144,0.024 0.213,0.06 l 12.087,6.997 c 0.135,0.081 0.217,0.215 0.217,0.367 0,0.151 -0.082,0.292 -0.219,0.368 l -2.378,1.367 2.384,1.379 c 0.131,0.074 0.213,0.218 0.213,0.361 0,0.239 -0.008,0.255 -2.638,1.759 l 2.421,1.395 c 0.135,0.084 0.217,0.225 0.217,0.375 0,0.145 -0.082,0.287 -0.219,0.365 l -2.381,1.362 2.383,1.384 c 0.135,0.064 0.217,0.21 0.217,0.364"
       style="fill:#4f5252;fill-opacity:1;fill-rule:nonzero;stroke:none"
       id="path179"
       inkscape:connector-curvature="0" /></g></svg>