<?xml version="1.0" encoding="UTF-8" standalone="no"?><!DOCTYPE svg PUBLIC "-//W3C//DTD SVG 1.1//EN" "http://www.w3.org/Graphics/SVG/1.1/DTD/svg11.dtd"><svg width="100%" height="100%" viewBox="0 0 6787 7782" version="1.1" xmlns="http://www.w3.org/2000/svg" xmlns:xlink="http://www.w3.org/1999/xlink" xml:space="preserve" xmlns:serif="http://www.serif.com/" style="fill-rule:evenodd;clip-rule:evenodd;stroke-linejoin:round;stroke-miterlimit:2;"><path id="path179" d="M5854.736,3285.52l-596.849,-341.249l587.122,-339.628l596.578,340.169l-586.852,340.709Zm586.852,599.55l-596.578,346.383l-587.122,-338.818l596.849,-342.06l586.852,334.495Zm0,953.228l-586.852,337.467l-597.659,-339.088l587.932,-342.6c227.5,131.852 449.055,258.031 596.578,344.221m-1468.21,-103.753l-5.674,0l-3209.04,1860.254l-1413.361,-807.596l586.581,-340.979l771.121,439.868c34.584,19.994 78.895,19.994 113.75,0l3212.012,-1856.742c102.942,58.361 333.684,189.673 586.041,332.873l-641.43,372.321Zm-4628.075,112.669l596.849,-346.653l585.771,337.737l-596.038,343.141l-586.581,-334.224Zm0,-950.797l586.581,-340.979l596.038,340.979l-587.122,340.979l-595.498,-340.979Zm-0.27,-939.449l595.768,-347.193l587.122,335.035l-597.119,348.544c-224.798,-129.151 -442.03,-253.708 -585.771,-336.386m4683.734,121.585l596.038,339.898l-648.725,376.914c-2.702,0.811 -5.944,0 -8.376,0.811l-3209.04,1858.633l-597.119,-341.79l650.346,-375.563l4.863,-1.081l3212.012,-1857.823Zm-52.687,-234.254c-2.702,0 -5.944,0 -8.376,1.351l-3210.932,1859.444l-586.311,-336.116l640.889,-370.43c0,0 3.783,0 5.404,-1.621l3210.121,-1859.174l587.932,335.846l-638.728,370.7Zm-3165.54,203.453c2.162,0 4.593,0 6.214,-2.972l3210.121,-1858.093l1414.712,808.947l-596.578,346.383l-760.854,-436.086c-36.746,-19.724 -78.895,-19.724 -116.452,1.351l-3210.932,1856.202c-102.942,-59.442 -339.088,-192.105 -595.227,-339.088l648.995,-376.644Zm4975.809,-103.483c0,-41.339 -22.156,-78.085 -59.171,-98.619l-653.588,-372.861l654.129,-380.157c36.476,-18.913 58.631,-58.091 58.631,-99.16c0,-39.718 -22.156,-77.544 -59.171,-97.809l-1643.022,-939.719c-36.746,-20.534 -78.895,-20.534 -116.452,0l-3210.932,1858.904l-587.662,-337.196l3083.672,-1786.223c55.119,-34.314 72.681,-102.132 41.609,-157.52c-30.802,-54.578 -101.861,-73.762 -156.71,-42.15l-3196.882,1856.202l-595.498,-340.979l3093.94,-1791.626c54.578,-33.233 72.951,-101.321 41.609,-158.601c-31.612,-53.227 -100.51,-72.951 -156.44,-42.15l-3266.32,1894.298c-35.395,19.724 -58.091,58.091 -58.091,98.079c0,41.879 22.696,78.895 58.091,99.43l653.048,372.591l-653.048,378.535c-35.395,19.724 -58.091,60.522 -58.091,99.43c0,62.684 1.621,68.898 701.952,467.428l-643.862,373.402c-35.395,19.183 -58.091,57.821 -58.091,98.619c0,42.69 22.696,77.815 58.091,100.51l653.859,372.861l-653.859,378.806c-35.395,21.885 -58.091,59.712 -58.091,101.861c0,38.367 22.696,77.004 58.091,96.458l645.212,367.187l-645.212,374.483c-35.395,20.534 -58.091,58.901 -58.091,98.619c0,40.258 22.696,78.355 58.091,98.889l1644.913,939.989c2.162,2.972 6.755,2.972 8.916,2.972c12.159,5.134 24.587,9.186 36.205,10.537c4.593,0.811 8.106,2.432 10.808,2.432c1.621,0 4.323,-1.621 6.485,-1.621c16.752,0 33.233,-2.162 48.094,-14.32l3.242,0l3212.012,-1858.633l596.038,342.06l-3091.508,1794.058c-54.578,31.612 -73.492,99.7 -42.69,154.008c21.885,38.637 60.793,57.01 100.51,57.01c19.724,0 38.097,-4.863 57.28,-14.32l3206.338,-1858.904l586.852,334.224l-3095.291,1791.897c-54.038,32.423 -72.411,101.051 -41.879,157.791c22.156,35.395 59.712,56.199 99.97,56.199c18.643,0 38.907,-6.485 57.55,-16.211l3265.78,-1890.516c36.476,-21.885 58.631,-58.091 58.631,-99.16c0,-40.799 -22.156,-78.895 -59.171,-99.43l-642.511,-369.349l644.132,-372.591c35.395,-19.994 57.55,-58.901 57.55,-97.538c0,-64.575 -2.162,-68.898 -712.76,-475.263l654.129,-376.914c36.476,-22.696 58.631,-60.793 58.631,-101.321c0,-39.177 -22.156,-77.544 -59.171,-98.619l-643.321,-367.998l643.862,-373.942c36.476,-17.292 58.631,-56.74 58.631,-98.349" style="fill:#4f5252;fill-rule:nonzero;"/></svg>